<?xml version="1.0" standalone="no"?>
<!DOCTYPE svg PUBLIC "-//W3C//DTD SVG 20010904//EN"
 "http://www.w3.org/TR/2001/REC-SVG-20010904/DTD/svg10.dtd">
<svg version="1.0" xmlns="http://www.w3.org/2000/svg"
 width="325.000000pt" height="325.000000pt" viewBox="0 0 325.000000 325.000000"
 preserveAspectRatio="xMidYMid meet">
<metadata>
Created by potrace 1.11, written by Peter Selinger 2001-2013
</metadata>
<g transform="translate(0.000000,325.000000) scale(0.100000,-0.100000)"
fill="#000000" stroke="none">
<path d="M1300 3231 c-211 -45 -405 -126 -572 -238 -366 -245 -604 -598 -700
-1036 -20 -88 -23 -131 -23 -322 0 -191 3 -234 23 -322 143 -655 620 -1132
1275 -1275 88 -20 131 -23 322 -23 191 0 234 3 322 23 655 143 1132 620 1275
1275 20 88 23 131 23 322 0 191 -3 234 -23 322 -143 654 -631 1142 -1274 1273
-134 28 -519 28 -648 1z m560 -196 c279 -46 534 -174 742 -374 132 -126 215
-238 293 -396 106 -213 147 -389 147 -630 -1 -242 -41 -417 -147 -630 -78
-158 -161 -270 -293 -396 -268 -258 -602 -392 -977 -392 -375 0 -709 134 -977
392 -132 126 -215 238 -293 396 -104 210 -148 395 -148 630 0 289 80 553 240
793 71 107 222 265 331 347 305 228 696 322 1082 260z"/>
<path d="M1985 2577 c-38 -13 -84 -32 -101 -43 -44 -28 -1118 -939 -1171 -993
-24 -25 -62 -82 -83 -126 -76 -153 -75 -297 1 -453 143 -291 517 -390 775
-204 105 75 1150 980 1176 1018 198 287 72 676 -259 796 -90 33 -246 35 -338
5z m338 -56 c127 -50 241 -168 282 -296 28 -84 27 -230 -2 -302 -45 -113 -67
-137 -318 -353 -134 -115 -259 -216 -276 -226 -92 -47 -309 50 -446 199 -145
159 -233 377 -194 480 5 14 81 85 168 158 87 73 190 161 228 194 176 151 235
177 395 172 79 -3 119 -9 163 -26z m-1042 -768 c-38 -69 -429 -398 -449 -378
-11 11 224 233 337 318 103 78 130 92 112 60z"/>
<path d="M1954 2324 c-137 -82 -404 -307 -404 -340 0 -22 23 -16 88 24 159 96
414 315 398 341 -10 16 -16 15 -82 -25z"/>
</g>
</svg>
